HIERARCHY
ROOT Hips
{
	OFFSET 0.00000 0.00000 0.00000
	CHANNELS 6 Xposition Yposition Zposition Zrotation Yrotation Xrotation 
	JOINT LHipJoint
	{
		OFFSET 0 0 0
		CHANNELS 3 Zrotation Yrotation Xrotation
		JOINT LeftUpLeg
		{
			OFFSET 1.26600 -1.82114 0.91038
			CHANNELS 3 Zrotation Yrotation Xrotation
			JOINT LeftLeg
			{
				OFFSET 2.50076 -6.87080 0.00000
				CHANNELS 3 Zrotation Yrotation Xrotation
				JOINT LeftFoot
				{
					OFFSET 2.57364 -7.07102 0.00000
					CHANNELS 3 Zrotation Yrotation Xrotation
					JOINT LeftToeBase
					{
						OFFSET 0.13572 -0.37290 1.97004
						CHANNELS 3 Zrotation Yrotation Xrotation
						End Site
						{
							OFFSET 0.00000 -0.00000 1.01383
						}
					}
				}
			}
		}
	}
	JOINT RHipJoint
	{
		OFFSET 0 0 0
		CHANNELS 3 Zrotation Yrotation Xrotation
		JOINT RightUpLeg
		{
			OFFSET -1.20803 -1.82114 0.91038
			CHANNELS 3 Zrotation Yrotation Xrotation
			JOINT RightLeg
			{
				OFFSET -2.54916 -7.00377 0.00000
				CHANNELS 3 Zrotation Yrotation Xrotation
				JOINT RightFoot
				{
					OFFSET -2.56374 -7.04382 0.00000
					CHANNELS 3 Zrotation Yrotation Xrotation
					JOINT RightToeBase
					{
						OFFSET -0.23520 -0.64621 2.09921
						CHANNELS 3 Zrotation Yrotation Xrotation
						End Site
						{
							OFFSET -0.00000 -0.00000 1.10065
						}
					}
				}
			}
		}
	}
	JOINT LowerBack
	{
		OFFSET 0 0 0
		CHANNELS 3 Zrotation Yrotation Xrotation
		JOINT Spine
		{
			OFFSET 0.05492 2.10797 -0.12074
			CHANNELS 3 Zrotation Yrotation Xrotation
			JOINT Spine1
			{
				OFFSET 0.04577 2.11592 -0.04483
				CHANNELS 3 Zrotation Yrotation Xrotation
				JOINT Neck
				{
					OFFSET 0 0 0
					CHANNELS 3 Zrotation Yrotation Xrotation
					JOINT Neck1
					{
						OFFSET -0.10759 1.80167 0.15770
						CHANNELS 3 Zrotation Yrotation Xrotation
						JOINT Head
						{
							OFFSET 0.09237 1.77509 -0.40848
							CHANNELS 3 Zrotation Yrotation Xrotation
							End Site
							{
								OFFSET 0.03805 1.84093 -0.15754
							}
						}
					}
				}
				JOINT LeftShoulder
				{
					OFFSET 0 0 0
					CHANNELS 3 Zrotation Yrotation Xrotation
					JOINT LeftArm
					{
						OFFSET 3.42372 1.09575 -0.28209
						CHANNELS 3 Zrotation Yrotation Xrotation
						JOINT LeftForeArm
						{
							OFFSET 4.95681 -0.00000 0.00000
							CHANNELS 3 Zrotation Yrotation Xrotation
							JOINT LeftHand
							{
								OFFSET 3.40915 -0.00000 0.00000
								CHANNELS 3 Zrotation Yrotation Xrotation
								JOINT LeftFingerBase
								{
									OFFSET 0 0 0
									CHANNELS 3 Zrotation Yrotation Xrotation
									JOINT LeftHandIndex1
									{
										OFFSET 0.61640 -0.00000 0.00000
										CHANNELS 3 Zrotation Yrotation Xrotation
										End Site
										{
											OFFSET 0.49696 -0.00000 0.00000
										}
									}
								}
								JOINT LThumb
								{
									OFFSET 0 0 0
									CHANNELS 3 Zrotation Yrotation Xrotation
									End Site
									{
										OFFSET 0.50455 -0.00000 0.50455
									}
								}
							}
						}
					}
				}
				JOINT RightShoulder
				{
					OFFSET 0 0 0
					CHANNELS 3 Zrotation Yrotation Xrotation
					JOINT RightArm
					{
						OFFSET -3.24731 1.15872 -0.32221
						CHANNELS 3 Zrotation Yrotation Xrotation
						JOINT RightForeArm
						{
							OFFSET -5.35200 -0.00000 0.00000
							CHANNELS 3 Zrotation Yrotation Xrotation
							JOINT RightHand
							{
								OFFSET -3.43721 -0.00000 -0.00000
								CHANNELS 3 Zrotation Yrotation Xrotation
								JOINT RightFingerBase
								{
									OFFSET 0 0 0
									CHANNELS 3 Zrotation Yrotation Xrotation
									JOINT RightHandIndex1
									{
										OFFSET -0.72009 -0.00000 0.00000
										CHANNELS 3 Zrotation Yrotation Xrotation
										End Site
										{
											OFFSET -0.58056 -0.00000 0.00000
										}
									}
								}
								JOINT RThumb
								{
									OFFSET 0 0 0
									CHANNELS 3 Zrotation Yrotation Xrotation
									End Site
									{
										OFFSET -0.58942 -0.00000 0.58942
									}
								}
							}
						}
					}
				}
			}
		}
	}
}
MOTION
Frames: 6
Frame Time: .0083333
19.1634 20.3768 -11.1004 0 0 0 0 0 0 -21 0 0 0 0 0 0 0 0 0 0 0 0 0 0 21 0 0 0 0 0 0 0 0 0 0 0 0 0 0 0 0 0 0 0 0 0 0 -16 0 0 21 0 0 11 0 0 0 -8 0 0 0 0 0 0 0 0 0 0 0 0 0 0 0 0 0 0 0 0 8 0 0 0 0 0 0 0 0 0 0 0 0 0 0 0 0 0
19.1634 20.3768 -11.1004 -5.0918 -5.3530 4.9250 0.0000 0.0000 0.0000 -14.5573 -4.4983 -13.5741 3.9158 12.0476 35.9004 1.6762 -6.3684 -23.2494 0.0051 0.4629 1.2721 0.0000 0.0000 0.0000 28.1356 2.3297 -14.3259 -3.7754 -11.8554 35.2225 -1.5083 10.5659 -22.1243 -0.3784 -3.9509 10.9385 2.0583 -2.2232 -1.0043 3.3414 -2.9108 -2.6419 2.3035 -1.4628 -2.0788 -15.4255 -10.3641 -5.9875 6.0396 -13.7412 22.4824 3.0515 -7.2150 9.6122 0.0000 0.0000 0.0000 -91.6175 5.6896 23.1861 13.9828 -22.7102 -2.8215 -0.0000 0.0000 -0.0850 14.6027 24.8363 6.2450 -7.1250 0.0000 -0.0000 -15.8757 54.8312 -3.9068 0.0000 0.0000 0.0000 87.6509 -1.7198 17.0497 -12.7413 20.9071 -2.3602 0.0000 -0.0000 -5.3513 -20.5971 11.8219 -4.4027 7.1250 -0.0000 -0.0000 4.5930 -17.4006 3.0190
19.1653 20.3743 -11.1031 -5.1315 -5.3409 4.8851 0.0000 0.0000 0.0000 -14.5431 -4.6504 -13.5012 3.9289 12.0652 35.9630 1.6924 -6.2192 -23.3767 0.0071 0.5438 1.4944 0.0000 0.0000 0.0000 28.1690 2.2389 -14.3031 -3.7725 -11.8514 35.2084 -1.4970 10.5541 -22.0431 -0.3761 -3.9386 10.9039 2.1467 -2.1799 -0.9703 3.3144 -2.8528 -2.6044 2.2263 -1.4356 -2.0665 -15.2985 -10.3640 -5.9823 5.9641 -13.7423 22.4961 3.0071 -7.2124 9.6001 0.0000 -0.0000 0.0000 -91.5329 5.4702 22.6331 13.8913 -22.5790 -2.7862 -0.0000 -0.0000 1.7415 14.7791 23.9745 6.1187 -7.1250 0.0000 -0.0000 -15.2622 54.0257 -3.4476 0.0000 -0.0000 0.0000 87.7123 -1.7131 17.0524 -12.7737 20.9547 -2.3717 0.0000 -0.0000 -5.3862 -20.6504 12.0863 -4.5120 7.1250 -0.0000 -0.0000 4.5634 -17.1161 3.0280
19.1637 20.3714 -11.1052 -5.0441 -5.3277 4.8555 0.0000 0.0000 0.0000 -14.6452 -4.7034 -13.4451 3.9231 12.0574 35.9352 1.6979 -6.1335 -23.4224 0.0034 0.3769 1.0356 0.0000 0.0000 0.0000 28.0865 2.2664 -14.3017 -3.7835 -11.8666 35.2616 -1.4913 10.5386 -22.0004 -0.3911 -4.0156 11.1207 2.0451 -2.1599 -0.9649 3.2781 -2.8273 -2.5923 2.2452 -1.4211 -2.0542 -15.2528 -10.2915 -5.7951 5.9982 -13.6748 22.3613 3.0336 -7.1778 9.5080 -0.0000 -0.0000 0.0000 -91.4518 5.3523 22.4303 13.8288 -22.4895 -2.7623 -0.0000 -0.0000 2.6032 14.8664 23.6267 6.0726 -7.1250 0.0000 -0.0000 -15.0064 53.7021 -3.2680 -0.0000 -0.0000 0.0000 87.7454 -1.7703 17.0522 -12.7913 20.9806 -2.3780 0.0000 -0.0000 -5.4254 -20.7117 12.5076 -4.6812 7.1250 -0.0000 -0.0000 4.5341 -16.6649 3.0531
19.1629 20.3685 -11.1076 -4.8339 -5.3415 4.8037 0.0000 0.0000 0.0000 -14.8746 -4.6158 -13.4292 3.9172 12.0494 35.9069 1.6909 -6.1742 -23.3689 0.0025 0.3241 0.8904 0.0000 0.0000 0.0000 27.8538 2.3094 -14.2855 -3.7918 -11.8780 35.3019 -1.4861 10.6422 -21.9748 -0.4435 -4.2729 11.8457 1.7906 -2.1559 -0.9509 3.2291 -2.8240 -2.5669 2.3365 -1.4151 -2.0259 -15.2061 -10.1852 -5.5292 6.0840 -13.5746 22.0811 3.0879 -7.1236 9.3500 0.0000 -0.0000 0.0000 -91.4408 5.2724 22.7480 13.7803 -22.4197 -2.7437 -0.0000 -0.0000 1.7154 15.9660 23.3455 6.4683 -7.1250 0.0000 -0.0000 -13.7799 53.6278 -2.9673 0.0000 -0.0000 0.0000 87.7531 -1.8091 17.1921 -12.8395 21.0516 -2.3953 0.0000 -0.0000 -5.6478 -20.6831 12.4730 -4.6615 7.1250 -0.0000 -0.0000 4.5528 -16.7040 3.0619
19.1636 20.3663 -11.1107 -4.7886 -5.3583 4.7100 0.0000 0.0000 0.0000 -14.9308 -4.5075 -13.3596 3.9074 12.0361 35.8600 1.6768 -6.2253 -23.2640 0.0045 0.4334 1.1909 0.0000 0.0000 0.0000 27.7921 2.2762 -14.2350 -3.8012 -11.8910 35.3476 -1.4871 10.7123 -21.9895 -0.4925 -4.4997 12.4868 1.7241 -2.1610 -0.8634 3.2295 -2.8295 -2.5178 2.3763 -1.4166 -2.0210 -15.1677 -10.1047 -5.4636 6.1029 -13.4749 21.9953 3.1073 -7.0731 9.2939 0.0000 -0.0000 0.0000 -91.4936 5.2317 22.9979 13.7756 -22.4130 -2.7420 -0.0000 -0.0000 0.7535 17.2481 22.9237 6.8953 -7.1250 0.0000 -0.0000 -12.3112 53.4442 -2.5874 0.0000 -0.0000 0.0000 87.7625 -1.7689 17.3824 -12.8932 21.1306 -2.4147 0.0000 -0.0000 -6.0319 -20.8345 11.9071 -4.4895 7.1250 -0.0000 -0.0000 4.4297 -17.2895 2.9218
